solid Case
facet normal 0.0 0.0 -1.0
  outer loop
    vertex 130.0 53.00000000000001 0.0
    vertex 0.0 0.0 0.0
    vertex 0.0 53.00000000000001 0.0
  endloop
endfacet
facet normal 0.0 0.0 -1.0
  outer loop
    vertex 0.0 0.0 0.0
    vertex 130.0 53.00000000000001 0.0
    vertex 130.0 0.0 0.0
  endloop
endfacet
facet normal 0.0 0.0 1.0
  outer loop
    vertex 0.0 0.0 7.0
    vertex 0.9999999999999999 1.9999999999999996 7.0
    vertex 0.0 53.00000000000001 7.0
  endloop
endfacet
facet normal 0.0 0.0 1.0
  outer loop
    vertex 0.9999999999999999 1.9999999999999996 7.0
    vertex 0.0 0.0 7.0
    vertex 130.0 0.0 7.0
  endloop
endfacet
facet normal 0.0 0.0 1.0
  outer loop
    vertex 0.0 53.00000000000001 7.0
    vertex 0.9999999999999999 1.9999999999999996 7.0
    vertex 0.999999999999999 52.00000000000001 7.0
  endloop
endfacet
facet normal 0.0 0.0 1.0
  outer loop
    vertex 0.9999999999999999 1.9999999999999996 7.0
    vertex 130.0 0.0 7.0
    vertex 66.0 2.0 7.0
  endloop
endfacet
facet normal 0.0 0.0 1.0
  outer loop
    vertex 66.0 2.0 7.0
    vertex 130.0 0.0 7.0
    vertex 97.99538429254996 2.0000000000000004 7.0
  endloop
endfacet
facet normal 0.0 0.0 1.0
  outer loop
    vertex 97.99538429254996 2.0000000000000004 7.0
    vertex 130.0 0.0 7.0
    vertex 100.99538429254996 2.0000000000000004 7.0
  endloop
endfacet
facet normal 0.0 0.0 1.0
  outer loop
    vertex 100.99538429254996 2.0000000000000004 7.0
    vertex 130.0 0.0 7.0
    vertex 100.99538429254996 32.00000000000001 7.0
  endloop
endfacet
facet normal 0.0 0.0 1.0
  outer loop
    vertex 100.99538429254996 32.00000000000001 7.0
    vertex 130.0 0.0 7.0
    vertex 100.99538429254996 49.0 7.0
  endloop
endfacet
facet normal 0.0 0.0 1.0
  outer loop
    vertex 100.99538429254996 49.0 7.0
    vertex 130.0 0.0 7.0
    vertex 100.99538429254996 52.00000000000001 7.0
  endloop
endfacet
facet normal 0.0 0.0 1.0
  outer loop
    vertex 0.999999999999999 52.00000000000001 7.0
    vertex 130.0 53.00000000000001 7.0
    vertex 0.0 53.00000000000001 7.0
  endloop
endfacet
facet normal 0.0 0.0 1.0
  outer loop
    vertex 130.0 53.00000000000001 7.0
    vertex 0.999999999999999 52.00000000000001 7.0
    vertex 66.0 52.00000000000001 7.0
  endloop
endfacet
facet normal 0.0 0.0 1.0
  outer loop
    vertex 130.0 53.00000000000001 7.0
    vertex 66.0 52.00000000000001 7.0
    vertex 94.99538429254996 52.00000000000001 7.0
  endloop
endfacet
facet normal 0.0 0.0 1.0
  outer loop
    vertex 130.0 53.00000000000001 7.0
    vertex 94.99538429254996 52.00000000000001 7.0
    vertex 100.99538429254996 52.00000000000001 7.0
  endloop
endfacet
facet normal 0.0 0.0 1.0
  outer loop
    vertex 130.0 53.00000000000001 7.0
    vertex 100.99538429254996 52.00000000000001 7.0
    vertex 130.0 0.0 7.0
  endloop
endfacet
facet normal 1.0 0.0 0.0
  outer loop
    vertex 130.0 53.00000000000001 0.0
    vertex 130.0 0.0 7.0
    vertex 130.0 0.0 0.0
  endloop
endfacet
facet normal 1.0 0.0 0.0
  outer loop
    vertex 130.0 0.0 7.0
    vertex 130.0 53.00000000000001 0.0
    vertex 130.0 53.00000000000001 7.0
  endloop
endfacet
facet normal -1.0 0.0 0.0
  outer loop
    vertex 0.0 53.00000000000001 7.0
    vertex 0.0 0.0 0.0
    vertex 0.0 0.0 7.0
  endloop
endfacet
facet normal -1.0 0.0 0.0
  outer loop
    vertex 0.0 0.0 0.0
    vertex 0.0 53.00000000000001 7.0
    vertex 0.0 53.00000000000001 0.0
  endloop
endfacet
facet normal 0.0 -1.0 0.0
  outer loop
    vertex 130.0 0.0 7.0
    vertex 0.0 0.0 0.0
    vertex 130.0 0.0 0.0
  endloop
endfacet
facet normal 0.0 -1.0 0.0
  outer loop
    vertex 0.0 0.0 0.0
    vertex 130.0 0.0 7.0
    vertex 0.0 0.0 7.0
  endloop
endfacet
facet normal 0.0 1.0 0.0
  outer loop
    vertex 0.0 53.00000000000001 7.0
    vertex 130.0 53.00000000000001 0.0
    vertex 0.0 53.00000000000001 0.0
  endloop
endfacet
facet normal 0.0 1.0 0.0
  outer loop
    vertex 130.0 53.00000000000001 0.0
    vertex 0.0 53.00000000000001 7.0
    vertex 130.0 53.00000000000001 7.0
  endloop
endfacet
facet normal -1.8193332145470307e-16 -1.0 -0.0
  outer loop
    vertex 66.0 49.0 5.0
    vertex 3.9999999999999996 49.000000000000014 0.9999999999999996
    vertex 66.0 49.0 0.9999999999999996
  endloop
endfacet
facet normal -1.8193332145470307e-16 -1.0 -0.0
  outer loop
    vertex 3.9999999999999996 49.000000000000014 0.9999999999999996
    vertex 66.0 49.0 5.0
    vertex 3.9999999999999996 49.000000000000014 5.0
  endloop
endfacet
facet normal -1.0846024932876527e-17 1.0 0.0
  outer loop
    vertex 0.9999999999999999 1.9999999999999996 7.0
    vertex 66.0 2.0 5.0
    vertex 0.9999999999999999 1.9999999999999996 5.0
  endloop
endfacet
facet normal -1.0846024932876527e-17 1.0 0.0
  outer loop
    vertex 66.0 2.0 5.0
    vertex 0.9999999999999999 1.9999999999999996 7.0
    vertex 66.0 2.0 7.0
  endloop
endfacet
facet normal -1.0 0.0 0.0
  outer loop
    vertex 100.99538429254996 32.00000000000001 7.0
    vertex 100.99538429254996 2.0000000000000004 5.000000000000002
    vertex 100.99538429254996 2.0000000000000004 7.0
  endloop
endfacet
facet normal -1.0 0.0 0.0
  outer loop
    vertex 100.99538429254996 2.0000000000000004 5.000000000000002
    vertex 100.99538429254996 32.00000000000001 7.0
    vertex 100.99538429254996 32.00000000000001 5.000000000000002
  endloop
endfacet
facet normal -1.8799776550319353e-15 1.0 0.0
  outer loop
    vertex 97.99538429254996 32.0 5.000000000000002
    vertex 100.99538429254996 32.00000000000001 0.9999999999999996
    vertex 97.99538429254996 32.0 0.9999999999999996
  endloop
endfacet
facet normal -1.8799776550319353e-15 1.0 0.0
  outer loop
    vertex 100.99538429254996 32.00000000000001 0.9999999999999996
    vertex 97.99538429254996 32.0 5.000000000000002
    vertex 100.99538429254996 32.00000000000001 5.000000000000002
  endloop
endfacet
facet normal 0.0 0.0 1.0
  outer loop
    vertex 66.0 2.0 5.0
    vertex 3.9999999999999996 4.999999999999999 5.0
    vertex 0.9999999999999999 1.9999999999999996 5.0
  endloop
endfacet
facet normal 0.0 0.0 1.0
  outer loop
    vertex 3.9999999999999996 4.999999999999999 5.0
    vertex 66.0 2.0 5.0
    vertex 66.0 4.999999999999999 5.0
  endloop
endfacet
facet normal 0.0 0.0 1.0
  outer loop
    vertex 0.999999999999999 52.00000000000001 5.0
    vertex 3.9999999999999996 49.000000000000014 5.0
    vertex 66.0 52.00000000000001 5.0
  endloop
endfacet
facet normal 0.0 0.0 1.0
  outer loop
    vertex 3.9999999999999996 49.000000000000014 5.0
    vertex 0.999999999999999 52.00000000000001 5.0
    vertex 0.9999999999999999 1.9999999999999996 5.0
  endloop
endfacet
facet normal 0.0 0.0 1.0
  outer loop
    vertex 3.9999999999999996 49.000000000000014 5.0
    vertex 0.9999999999999999 1.9999999999999996 5.0
    vertex 3.9999999999999996 4.999999999999999 5.0
  endloop
endfacet
facet normal 0.0 0.0 1.0
  outer loop
    vertex 66.0 52.00000000000001 5.0
    vertex 3.9999999999999996 49.000000000000014 5.0
    vertex 66.0 49.0 5.0
  endloop
endfacet
facet normal -0.0 -1.0 -0.0
  outer loop
    vertex 100.99538429254996 49.0 5.0
    vertex 94.99538429254996 49.0 0.9999999999999996
    vertex 100.99538429254996 49.0 0.9999999999999996
  endloop
endfacet
facet normal -0.0 -1.0 -0.0
  outer loop
    vertex 94.99538429254996 49.0 0.9999999999999996
    vertex 100.99538429254996 49.0 5.0
    vertex 94.99538429254996 49.0 5.0
  endloop
endfacet
facet normal 0.0 1.0 0.0
  outer loop
    vertex 97.99538429254996 2.0000000000000004 7.0
    vertex 100.99538429254996 2.0000000000000004 5.000000000000002
    vertex 97.99538429254996 2.0000000000000004 5.000000000000002
  endloop
endfacet
facet normal 0.0 1.0 0.0
  outer loop
    vertex 100.99538429254996 2.0000000000000004 5.000000000000002
    vertex 97.99538429254996 2.0000000000000004 7.0
    vertex 100.99538429254996 2.0000000000000004 7.0
  endloop
endfacet
facet normal -1.0 0.0 0.0
  outer loop
    vertex 100.99538429254996 49.0 7.0
    vertex 100.99538429254996 32.00000000000001 5.000000000000002
    vertex 100.99538429254996 32.00000000000001 7.0
  endloop
endfacet
facet normal -1.0 0.0 0.0
  outer loop
    vertex 100.99538429254996 32.00000000000001 5.000000000000002
    vertex 100.99538429254996 49.0 7.0
    vertex 100.99538429254996 32.00000000000001 0.9999999999999996
  endloop
endfacet
facet normal -1.0 0.0 0.0
  outer loop
    vertex 100.99538429254996 32.00000000000001 0.9999999999999996
    vertex 100.99538429254996 49.0 7.0
    vertex 100.99538429254996 49.0 0.9999999999999996
  endloop
endfacet
facet normal -1.0 0.0 0.0
  outer loop
    vertex 100.99538429254996 49.0 0.9999999999999996
    vertex 100.99538429254996 49.0 7.0
    vertex 100.99538429254996 49.0 5.0
  endloop
endfacet
facet normal 0.0 1.0 0.0
  outer loop
    vertex 3.9999999999999996 4.999999999999999 5.0
    vertex 66.0 4.999999999999999 0.9999999999999996
    vertex 3.9999999999999996 4.999999999999999 0.9999999999999996
  endloop
endfacet
facet normal 0.0 1.0 0.0
  outer loop
    vertex 66.0 4.999999999999999 0.9999999999999996
    vertex 3.9999999999999996 4.999999999999999 5.0
    vertex 66.0 4.999999999999999 5.0
  endloop
endfacet
facet normal 1.0 0.0 0.0
  outer loop
    vertex 66.0 52.00000000000001 0.9999999999999996
    vertex 66.0 49.0 5.0
    vertex 66.0 49.0 0.9999999999999996
  endloop
endfacet
facet normal 1.0 0.0 0.0
  outer loop
    vertex 66.0 49.0 5.0
    vertex 66.0 52.00000000000001 0.9999999999999996
    vertex 66.0 52.00000000000001 5.0
  endloop
endfacet
facet normal -0.0 -1.0 -0.0
  outer loop
    vertex 94.99538429254996 52.00000000000001 5.0
    vertex 66.0 52.00000000000001 0.9999999999999996
    vertex 94.99538429254996 52.00000000000001 0.9999999999999996
  endloop
endfacet
facet normal -0.0 -1.0 -0.0
  outer loop
    vertex 66.0 52.00000000000001 0.9999999999999996
    vertex 94.99538429254996 52.00000000000001 5.0
    vertex 66.0 52.00000000000001 5.0
  endloop
endfacet
facet normal -0.0 -1.0 -0.0
  outer loop
    vertex 66.0 52.00000000000001 5.0
    vertex 94.99538429254996 52.00000000000001 5.0
    vertex 94.99538429254996 52.00000000000001 7.0
  endloop
endfacet
facet normal -0.0 -1.0 -0.0
  outer loop
    vertex 66.0 52.00000000000001 5.0
    vertex 94.99538429254996 52.00000000000001 7.0
    vertex 66.0 52.00000000000001 7.0
  endloop
endfacet
facet normal 1.0 1.762479051592436e-17 0.0
  outer loop
    vertex 0.999999999999999 52.00000000000001 5.0
    vertex 0.9999999999999999 1.9999999999999996 7.0
    vertex 0.9999999999999999 1.9999999999999996 5.0
  endloop
endfacet
facet normal 1.0 1.762479051592436e-17 0.0
  outer loop
    vertex 0.9999999999999999 1.9999999999999996 7.0
    vertex 0.999999999999999 52.00000000000001 5.0
    vertex 0.999999999999999 52.00000000000001 7.0
  endloop
endfacet
facet normal 0.0 0.0 1.0
  outer loop
    vertex 100.99538429254996 49.0 5.0
    vertex 94.99538429254996 52.00000000000001 5.0
    vertex 94.99538429254996 49.0 5.0
  endloop
endfacet
facet normal 0.0 0.0 1.0
  outer loop
    vertex 94.99538429254996 52.00000000000001 5.0
    vertex 100.99538429254996 49.0 5.0
    vertex 100.99538429254996 52.00000000000001 5.0
  endloop
endfacet
facet normal -1.0 0.0 0.0
  outer loop
    vertex 94.99538429254996 52.00000000000001 5.0
    vertex 94.99538429254996 49.0 0.9999999999999996
    vertex 94.99538429254996 49.0 5.0
  endloop
endfacet
facet normal -1.0 0.0 0.0
  outer loop
    vertex 94.99538429254996 49.0 0.9999999999999996
    vertex 94.99538429254996 52.00000000000001 5.0
    vertex 94.99538429254996 52.00000000000001 0.9999999999999996
  endloop
endfacet
facet normal 0.0 -1.0 0.0
  outer loop
    vertex 100.99538429254996 52.00000000000001 7.0
    vertex 94.99538429254996 52.00000000000001 5.0
    vertex 100.99538429254996 52.00000000000001 5.0
  endloop
endfacet
facet normal 0.0 -1.0 0.0
  outer loop
    vertex 94.99538429254996 52.00000000000001 5.0
    vertex 100.99538429254996 52.00000000000001 7.0
    vertex 94.99538429254996 52.00000000000001 7.0
  endloop
endfacet
facet normal -1.0 0.0 0.0
  outer loop
    vertex 100.99538429254996 52.00000000000001 7.0
    vertex 100.99538429254996 49.0 5.0
    vertex 100.99538429254996 49.0 7.0
  endloop
endfacet
facet normal -1.0 0.0 0.0
  outer loop
    vertex 100.99538429254996 49.0 5.0
    vertex 100.99538429254996 52.00000000000001 7.0
    vertex 100.99538429254996 52.00000000000001 5.0
  endloop
endfacet
facet normal 0.0 0.0 1.0
  outer loop
    vertex 100.99538429254996 2.0000000000000004 5.000000000000002
    vertex 97.99538429254996 32.0 5.000000000000002
    vertex 97.99538429254996 2.0000000000000004 5.000000000000002
  endloop
endfacet
facet normal 0.0 0.0 1.0
  outer loop
    vertex 97.99538429254996 32.0 5.000000000000002
    vertex 100.99538429254996 2.0000000000000004 5.000000000000002
    vertex 100.99538429254996 32.00000000000001 5.000000000000002
  endloop
endfacet
facet normal -1.0 0.0 0.0
  outer loop
    vertex 97.99538429254996 32.0 5.000000000000002
    vertex 97.99538429254996 2.0000000000000004 0.9999999999999996
    vertex 97.99538429254996 2.0000000000000004 5.000000000000002
  endloop
endfacet
facet normal -1.0 0.0 0.0
  outer loop
    vertex 97.99538429254996 2.0000000000000004 0.9999999999999996
    vertex 97.99538429254996 32.0 5.000000000000002
    vertex 97.99538429254996 32.0 0.9999999999999996
  endloop
endfacet
facet normal 1.0 0.0 0.0
  outer loop
    vertex 3.9999999999999996 49.000000000000014 0.9999999999999996
    vertex 3.9999999999999996 4.999999999999999 5.0
    vertex 3.9999999999999996 4.999999999999999 0.9999999999999996
  endloop
endfacet
facet normal 1.0 0.0 0.0
  outer loop
    vertex 3.9999999999999996 4.999999999999999 5.0
    vertex 3.9999999999999996 49.000000000000014 0.9999999999999996
    vertex 3.9999999999999996 49.000000000000014 5.0
  endloop
endfacet
facet normal 1.0 0.0 0.0
  outer loop
    vertex 66.0 4.999999999999999 0.9999999999999996
    vertex 66.0 2.0 5.0
    vertex 66.0 2.0 0.9999999999999996
  endloop
endfacet
facet normal 1.0 0.0 0.0
  outer loop
    vertex 66.0 2.0 5.0
    vertex 66.0 4.999999999999999 0.9999999999999996
    vertex 66.0 4.999999999999999 5.0
  endloop
endfacet
facet normal -0.0 -1.0 -0.0
  outer loop
    vertex 66.0 52.00000000000001 7.0
    vertex 0.999999999999999 52.00000000000001 5.0
    vertex 66.0 52.00000000000001 5.0
  endloop
endfacet
facet normal -0.0 -1.0 -0.0
  outer loop
    vertex 0.999999999999999 52.00000000000001 5.0
    vertex 66.0 52.00000000000001 7.0
    vertex 0.999999999999999 52.00000000000001 7.0
  endloop
endfacet
facet normal 0.0 0.0 1.0
  outer loop
    vertex 66.0 4.999999999999999 0.9999999999999996
    vertex 3.9999999999999996 49.000000000000014 0.9999999999999996
    vertex 3.9999999999999996 4.999999999999999 0.9999999999999996
  endloop
endfacet
facet normal 0.0 0.0 1.0
  outer loop
    vertex 3.9999999999999996 49.000000000000014 0.9999999999999996
    vertex 66.0 4.999999999999999 0.9999999999999996
    vertex 66.0 49.0 0.9999999999999996
  endloop
endfacet
facet normal 0.0 0.0 1.0
  outer loop
    vertex 97.99538429254996 2.0000000000000004 0.9999999999999996
    vertex 66.0 4.999999999999999 0.9999999999999996
    vertex 66.0 2.0 0.9999999999999996
  endloop
endfacet
facet normal 0.0 0.0 1.0
  outer loop
    vertex 66.0 4.999999999999999 0.9999999999999996
    vertex 97.99538429254996 2.0000000000000004 0.9999999999999996
    vertex 66.0 49.0 0.9999999999999996
  endloop
endfacet
facet normal 0.0 0.0 1.0
  outer loop
    vertex 66.0 49.0 0.9999999999999996
    vertex 97.99538429254996 2.0000000000000004 0.9999999999999996
    vertex 66.0 52.00000000000001 0.9999999999999996
  endloop
endfacet
facet normal 0.0 0.0 1.0
  outer loop
    vertex 66.0 52.00000000000001 0.9999999999999996
    vertex 97.99538429254996 2.0000000000000004 0.9999999999999996
    vertex 94.99538429254996 49.0 0.9999999999999996
  endloop
endfacet
facet normal 0.0 0.0 1.0
  outer loop
    vertex 94.99538429254996 49.0 0.9999999999999996
    vertex 97.99538429254996 2.0000000000000004 0.9999999999999996
    vertex 97.99538429254996 32.0 0.9999999999999996
  endloop
endfacet
facet normal 0.0 0.0 1.0
  outer loop
    vertex 94.99538429254996 49.0 0.9999999999999996
    vertex 97.99538429254996 32.0 0.9999999999999996
    vertex 100.99538429254996 49.0 0.9999999999999996
  endloop
endfacet
facet normal 0.0 0.0 1.0
  outer loop
    vertex 100.99538429254996 49.0 0.9999999999999996
    vertex 97.99538429254996 32.0 0.9999999999999996
    vertex 100.99538429254996 32.00000000000001 0.9999999999999996
  endloop
endfacet
facet normal 0.0 0.0 1.0
  outer loop
    vertex 94.99538429254996 52.00000000000001 0.9999999999999996
    vertex 66.0 52.00000000000001 0.9999999999999996
    vertex 94.99538429254996 49.0 0.9999999999999996
  endloop
endfacet
facet normal -1.1017083185982078e-17 1.0 0.0
  outer loop
    vertex 66.0 2.0 5.0
    vertex 97.99538429254996 2.0000000000000004 0.9999999999999996
    vertex 66.0 2.0 0.9999999999999996
  endloop
endfacet
facet normal -1.1017083185982078e-17 1.0 0.0
  outer loop
    vertex 97.99538429254996 2.0000000000000004 0.9999999999999996
    vertex 66.0 2.0 5.0
    vertex 97.99538429254996 2.0000000000000004 5.000000000000002
  endloop
endfacet
facet normal -1.1017083185982078e-17 1.0 0.0
  outer loop
    vertex 97.99538429254996 2.0000000000000004 5.000000000000002
    vertex 66.0 2.0 5.0
    vertex 66.0 2.0 7.0
  endloop
endfacet
facet normal -1.1017083185982078e-17 1.0 0.0
  outer loop
    vertex 97.99538429254996 2.0000000000000004 5.000000000000002
    vertex 66.0 2.0 7.0
    vertex 97.99538429254996 2.0000000000000004 7.0
  endloop
endfacet
facet normal -1.0 0.0 0.0
  outer loop
    vertex 0.0 67.50826893186789 0.0
    vertex 0.0 120.5082689318679 18.999999999999982
    vertex 0.0 120.5082689318679 -1.6919798895287383e-14
  endloop
endfacet
facet normal -1.0 0.0 0.0
  outer loop
    vertex 0.0 120.5082689318679 18.999999999999982
    vertex 0.0 67.50826893186789 0.0
    vertex 0.0 67.5082689318679 18.999999999999996
  endloop
endfacet
facet normal 1.0 0.0 0.0
  outer loop
    vertex 17.99999999999999 119.5082689318679 9.999999999999982
    vertex 17.99999999999999 120.5082689318679 6.979023120141207
    vertex 17.99999999999999 120.5082689318679 9.999999999999982
  endloop
endfacet
facet normal 1.0 0.0 0.0
  outer loop
    vertex 17.99999999999999 120.5082689318679 6.979023120141207
    vertex 17.99999999999999 119.5082689318679 9.999999999999982
    vertex 17.99999999999999 119.5082689318679 6.979023120141207
  endloop
endfacet
facet normal 0.0 -1.0 3.191891195797325e-16
  outer loop
    vertex 94.00000000000001 67.5082689318679 14.0
    vertex 96.0 67.5082689318679 19.0
    vertex 94.00000000000001 67.5082689318679 19.0
  endloop
endfacet
facet normal 0.0 -1.0 3.191891195797325e-16
  outer loop
    vertex 96.0 67.5082689318679 19.0
    vertex 94.00000000000001 67.5082689318679 14.0
    vertex 96.0 67.5082689318679 17.0
  endloop
endfacet
facet normal 0.0 -1.0 3.191891195797325e-16
  outer loop
    vertex 96.0 67.5082689318679 17.0
    vertex 94.00000000000001 67.5082689318679 14.0
    vertex 98.0 67.5082689318679 17.0
  endloop
endfacet
facet normal 0.0 -1.0 3.191891195797325e-16
  outer loop
    vertex 0.0 67.5082689318679 18.999999999999996
    vertex 77.0 67.5082689318679 14.0
    vertex 77.0 67.5082689318679 19.0
  endloop
endfacet
facet normal 0.0 -1.0 3.191891195797325e-16
  outer loop
    vertex 77.0 67.5082689318679 14.0
    vertex 0.0 67.5082689318679 18.999999999999996
    vertex 0.0 67.50826893186789 0.0
  endloop
endfacet
facet normal 0.0 -1.0 3.191891195797325e-16
  outer loop
    vertex 77.0 67.5082689318679 14.0
    vertex 0.0 67.50826893186789 0.0
    vertex 94.00000000000001 67.5082689318679 14.0
  endloop
endfacet
facet normal 0.0 -1.0 3.191891195797325e-16
  outer loop
    vertex 98.0 67.5082689318679 17.0
    vertex 130.0 67.5082689318679 18.999999999999996
    vertex 98.00000000000003 67.5082689318679 19.0
  endloop
endfacet
facet normal 0.0 -1.0 3.191891195797325e-16
  outer loop
    vertex 130.0 67.5082689318679 18.999999999999996
    vertex 98.0 67.5082689318679 17.0
    vertex 130.0 67.50826893186789 0.0
  endloop
endfacet
facet normal 0.0 -1.0 3.191891195797325e-16
  outer loop
    vertex 130.0 67.50826893186789 0.0
    vertex 98.0 67.5082689318679 17.0
    vertex 94.00000000000001 67.5082689318679 14.0
  endloop
endfacet
facet normal 0.0 -1.0 3.191891195797325e-16
  outer loop
    vertex 130.0 67.50826893186789 0.0
    vertex 94.00000000000001 67.5082689318679 14.0
    vertex 0.0 67.50826893186789 0.0
  endloop
endfacet
facet normal -0.0 1.0 -3.191891195797325e-16
  outer loop
    vertex 74.0 69.50826893186789 0.0
    vertex 11.000000000000002 69.50826893186789 0.9999999999999981
    vertex 74.0 69.50826893186789 0.9999999999999981
  endloop
endfacet
facet normal -0.0 1.0 -3.191891195797325e-16
  outer loop
    vertex 11.000000000000002 69.50826893186789 0.9999999999999981
    vertex 74.0 69.50826893186789 0.0
    vertex 11.000000000000002 69.50826893186789 0.0
  endloop
endfacet
facet normal 0.0 -3.191891195797325e-16 -1.0
  outer loop
    vertex 45.00000000000001 120.5082689318679 9.999999999999982
    vertex 17.99999999999999 119.5082689318679 9.999999999999982
    vertex 17.99999999999999 120.5082689318679 9.999999999999982
  endloop
endfacet
facet normal 0.0 -3.191891195797325e-16 -1.0
  outer loop
    vertex 17.99999999999999 119.5082689318679 9.999999999999982
    vertex 45.00000000000001 120.5082689318679 9.999999999999982
    vertex 45.00000000000001 119.5082689318679 9.999999999999982
  endloop
endfacet
facet normal 1.0 0.0 0.0
  outer loop
    vertex 130.0 67.5082689318679 18.999999999999996
    vertex 130.0 120.5082689318679 -1.6919798895287383e-14
    vertex 130.0 120.5082689318679 18.999999999999982
  endloop
endfacet
facet normal 1.0 0.0 0.0
  outer loop
    vertex 130.0 120.5082689318679 -1.6919798895287383e-14
    vertex 130.0 67.5082689318679 18.999999999999996
    vertex 130.0 67.50826893186789 0.0
  endloop
endfacet
facet normal 1.0 0.0 0.0
  outer loop
    vertex 11.000000000000002 69.50826893186789 0.9999999999999981
    vertex 11.000000000000002 114.5082689318679 -1.4099832412739488e-14
    vertex 11.000000000000002 114.5082689318679 0.999999999999984
  endloop
endfacet
facet normal 1.0 0.0 0.0
  outer loop
    vertex 11.000000000000002 114.5082689318679 -1.4099832412739488e-14
    vertex 11.000000000000002 69.50826893186789 0.9999999999999981
    vertex 11.000000000000002 69.50826893186789 0.0
  endloop
endfacet
facet normal -8.469761175629598e-19 3.3933763824037346e-16 1.0
  outer loop
    vertex 0.0 67.5082689318679 18.999999999999996
    vertex 0.9999999999999981 68.5082689318679 19.0
    vertex 0.0 120.5082689318679 18.999999999999982
  endloop
endfacet
facet normal -8.469761175629598e-19 3.3933763824037346e-16 1.0
  outer loop
    vertex 0.9999999999999981 68.5082689318679 19.0
    vertex 0.0 67.5082689318679 18.999999999999996
    vertex 77.0 67.5082689318679 19.0
  endloop
endfacet
facet normal -8.469761175629598e-19 3.3933763824037346e-16 1.0
  outer loop
    vertex 0.9999999999999981 68.5082689318679 19.0
    vertex 77.0 67.5082689318679 19.0
    vertex 77.0 68.5082689318679 19.0
  endloop
endfacet
facet normal -8.469761175629598e-19 3.3933763824037346e-16 1.0
  outer loop
    vertex 98.00000000000003 67.5082689318679 19.0
    vertex 129.0 68.5082689318679 19.0
    vertex 98.0 68.5082689318679 19.0
  endloop
endfacet
facet normal -8.469761175629598e-19 3.3933763824037346e-16 1.0
  outer loop
    vertex 129.0 68.5082689318679 19.0
    vertex 98.00000000000003 67.5082689318679 19.0
    vertex 130.0 67.5082689318679 18.999999999999996
  endloop
endfacet
facet normal -8.469761175629598e-19 3.3933763824037346e-16 1.0
  outer loop
    vertex 129.0 68.5082689318679 19.0
    vertex 130.0 67.5082689318679 18.999999999999996
    vertex 129.0 119.5082689318679 18.999999999999982
  endloop
endfacet
facet normal -8.469761175629598e-19 3.3933763824037346e-16 1.0
  outer loop
    vertex 0.0 120.5082689318679 18.999999999999982
    vertex 0.9999999999999981 119.5082689318679 18.999999999999982
    vertex 130.0 120.5082689318679 18.999999999999982
  endloop
endfacet
facet normal -8.469761175629598e-19 3.3933763824037346e-16 1.0
  outer loop
    vertex 0.9999999999999981 119.5082689318679 18.999999999999982
    vertex 0.0 120.5082689318679 18.999999999999982
    vertex 0.9999999999999981 68.5082689318679 19.0
  endloop
endfacet
facet normal -8.469761175629598e-19 3.3933763824037346e-16 1.0
  outer loop
    vertex 130.0 120.5082689318679 18.999999999999982
    vertex 0.9999999999999981 119.5082689318679 18.999999999999982
    vertex 129.0 119.5082689318679 18.999999999999982
  endloop
endfacet
facet normal -8.469761175629598e-19 3.3933763824037346e-16 1.0
  outer loop
    vertex 130.0 120.5082689318679 18.999999999999982
    vertex 129.0 119.5082689318679 18.999999999999982
    vertex 130.0 67.5082689318679 18.999999999999996
  endloop
endfacet
facet normal -1.0 0.0 0.0
  outer loop
    vertex 74.0 69.50826893186789 0.0
    vertex 74.0 114.5082689318679 0.999999999999984
    vertex 74.0 114.5082689318679 -1.4099832412739488e-14
  endloop
endfacet
facet normal -1.0 0.0 0.0
  outer loop
    vertex 74.0 114.5082689318679 0.999999999999984
    vertex 74.0 69.50826893186789 0.0
    vertex 74.0 69.50826893186789 0.9999999999999981
  endloop
endfacet
facet normal 0.0 -1.0 3.191891195797325e-16
  outer loop
    vertex 11.000000000000002 114.5082689318679 -1.4099832412739488e-14
    vertex 74.0 114.5082689318679 0.999999999999984
    vertex 11.000000000000002 114.5082689318679 0.999999999999984
  endloop
endfacet
facet normal 0.0 -1.0 3.191891195797325e-16
  outer loop
    vertex 74.0 114.5082689318679 0.999999999999984
    vertex 11.000000000000002 114.5082689318679 -1.4099832412739488e-14
    vertex 74.0 114.5082689318679 -1.4099832412739488e-14
  endloop
endfacet
facet normal -1.0 3.1129562476879764e-49 8.975301282943915e-34
  outer loop
    vertex 129.0 68.50826893186789 1.000000000000015
    vertex 129.0 119.5082689318679 18.999999999999982
    vertex 129.0 119.5082689318679 0.9999999999999869
  endloop
endfacet
facet normal -1.0 3.1129562476879764e-49 8.975301282943915e-34
  outer loop
    vertex 129.0 119.5082689318679 18.999999999999982
    vertex 129.0 68.50826893186789 1.000000000000015
    vertex 129.0 68.5082689318679 19.0
  endloop
endfacet
facet normal 1.0 -3.1129562476879764e-49 -8.975301282943915e-34
  outer loop
    vertex 0.9999999999999981 119.5082689318679 18.999999999999982
    vertex 0.9999999999999981 68.50826893186789 1.000000000000015
    vertex 0.9999999999999981 119.5082689318679 0.9999999999999869
  endloop
endfacet
facet normal 1.0 -3.1129562476879764e-49 -8.975301282943915e-34
  outer loop
    vertex 0.9999999999999981 68.50826893186789 1.000000000000015
    vertex 0.9999999999999981 119.5082689318679 18.999999999999982
    vertex 0.9999999999999981 68.5082689318679 19.0
  endloop
endfacet
facet normal -0.0 3.191891195797325e-16 1.0
  outer loop
    vertex 96.0 67.5082689318679 19.0
    vertex 94.00000000000001 68.5082689318679 19.0
    vertex 94.00000000000001 67.5082689318679 19.0
  endloop
endfacet
facet normal -0.0 3.191891195797325e-16 1.0
  outer loop
    vertex 94.00000000000001 68.5082689318679 19.0
    vertex 96.0 67.5082689318679 19.0
    vertex 96.0 68.50826893186789 19.0
  endloop
endfacet
facet normal 1.2461885662949942e-17 1.0 -1.8895855782640634e-16
  outer loop
    vertex 129.0 68.50826893186789 1.000000000000015
    vertex 98.0 68.5082689318679 19.0
    vertex 129.0 68.5082689318679 19.0
  endloop
endfacet
facet normal 1.2461885662949942e-17 1.0 -1.8895855782640634e-16
  outer loop
    vertex 98.0 68.5082689318679 19.0
    vertex 129.0 68.50826893186789 1.000000000000015
    vertex 98.00000000000003 68.5082689318679 17.0
  endloop
endfacet
facet normal 1.2461885662949942e-17 1.0 -1.8895855782640634e-16
  outer loop
    vertex 98.00000000000003 68.5082689318679 17.0
    vertex 129.0 68.50826893186789 1.000000000000015
    vertex 96.0 68.50826893186789 17.0
  endloop
endfacet
facet normal 1.2461885662949942e-17 1.0 -1.8895855782640634e-16
  outer loop
    vertex 96.0 68.50826893186789 17.0
    vertex 129.0 68.50826893186789 1.000000000000015
    vertex 94.00000000000001 68.5082689318679 14.0
  endloop
endfacet
facet normal 1.2461885662949942e-17 1.0 -1.8895855782640634e-16
  outer loop
    vertex 94.00000000000001 68.5082689318679 14.0
    vertex 129.0 68.50826893186789 1.000000000000015
    vertex 77.0 68.5082689318679 14.0
  endloop
endfacet
facet normal 1.2461885662949942e-17 1.0 -1.8895855782640634e-16
  outer loop
    vertex 77.0 68.5082689318679 14.0
    vertex 0.9999999999999981 68.5082689318679 19.0
    vertex 77.0 68.5082689318679 19.0
  endloop
endfacet
facet normal 1.2461885662949942e-17 1.0 -1.8895855782640634e-16
  outer loop
    vertex 0.9999999999999981 68.5082689318679 19.0
    vertex 77.0 68.5082689318679 14.0
    vertex 0.9999999999999981 68.50826893186789 1.000000000000015
  endloop
endfacet
facet normal 1.2461885662949942e-17 1.0 -1.8895855782640634e-16
  outer loop
    vertex 0.9999999999999981 68.50826893186789 1.000000000000015
    vertex 77.0 68.5082689318679 14.0
    vertex 129.0 68.50826893186789 1.000000000000015
  endloop
endfacet
facet normal 1.2461885662949942e-17 1.0 -1.8895855782640634e-16
  outer loop
    vertex 96.0 68.50826893186789 17.0
    vertex 94.00000000000001 68.5082689318679 19.0
    vertex 96.0 68.50826893186789 19.0
  endloop
endfacet
facet normal 1.2461885662949942e-17 1.0 -1.8895855782640634e-16
  outer loop
    vertex 94.00000000000001 68.5082689318679 19.0
    vertex 96.0 68.50826893186789 17.0
    vertex 94.00000000000001 68.5082689318679 14.0
  endloop
endfacet
facet normal 1.8991245666464827e-17 4.828821654149623e-16 1.0
  outer loop
    vertex 0.9999999999999981 68.50826893186789 1.000000000000015
    vertex 11.000000000000002 69.50826893186789 0.9999999999999981
    vertex 0.9999999999999981 119.5082689318679 0.9999999999999869
  endloop
endfacet
facet normal 1.8991245666464827e-17 4.828821654149623e-16 1.0
  outer loop
    vertex 11.000000000000002 69.50826893186789 0.9999999999999981
    vertex 0.9999999999999981 68.50826893186789 1.000000000000015
    vertex 129.0 68.50826893186789 1.000000000000015
  endloop
endfacet
facet normal 1.8991245666464827e-17 4.828821654149623e-16 1.0
  outer loop
    vertex 11.000000000000002 69.50826893186789 0.9999999999999981
    vertex 129.0 68.50826893186789 1.000000000000015
    vertex 74.0 69.50826893186789 0.9999999999999981
  endloop
endfacet
facet normal 1.8991245666464827e-17 4.828821654149623e-16 1.0
  outer loop
    vertex 74.0 69.50826893186789 0.9999999999999981
    vertex 129.0 68.50826893186789 1.000000000000015
    vertex 79.0 75.5082689318679 0.9999999999999981
  endloop
endfacet
facet normal 1.8991245666464827e-17 4.828821654149623e-16 1.0
  outer loop
    vertex 74.0 69.50826893186789 0.9999999999999981
    vertex 79.0 75.5082689318679 0.9999999999999981
    vertex 74.0 114.5082689318679 0.999999999999984
  endloop
endfacet
facet normal 1.8991245666464827e-17 4.828821654149623e-16 1.0
  outer loop
    vertex 79.0 75.5082689318679 0.9999999999999981
    vertex 129.0 68.50826893186789 1.000000000000015
    vertex 94.0 75.5082689318679 0.9999999999999981
  endloop
endfacet
facet normal 1.8991245666464827e-17 4.828821654149623e-16 1.0
  outer loop
    vertex 94.0 75.5082689318679 0.9999999999999981
    vertex 129.0 68.50826893186789 1.000000000000015
    vertex 94.0 83.5082689318679 0.9999999999999953
  endloop
endfacet
facet normal 1.8991245666464827e-17 4.828821654149623e-16 1.0
  outer loop
    vertex 0.9999999999999981 119.5082689318679 0.9999999999999869
    vertex 11.000000000000002 114.5082689318679 0.999999999999984
    vertex 81.99999999999999 119.5082689318679 0.999999999999984
  endloop
endfacet
facet normal 1.8991245666464827e-17 4.828821654149623e-16 1.0
  outer loop
    vertex 11.000000000000002 114.5082689318679 0.999999999999984
    vertex 0.9999999999999981 119.5082689318679 0.9999999999999869
    vertex 11.000000000000002 69.50826893186789 0.9999999999999981
  endloop
endfacet
facet normal 1.8991245666464827e-17 4.828821654149623e-16 1.0
  outer loop
    vertex 81.99999999999999 119.5082689318679 0.999999999999984
    vertex 11.000000000000002 114.5082689318679 0.999999999999984
    vertex 74.0 114.5082689318679 0.999999999999984
  endloop
endfacet
facet normal 1.8991245666464827e-17 4.828821654149623e-16 1.0
  outer loop
    vertex 81.99999999999999 119.5082689318679 0.999999999999984
    vertex 74.0 114.5082689318679 0.999999999999984
    vertex 79.0 83.5082689318679 0.9999999999999953
  endloop
endfacet
facet normal 1.8991245666464827e-17 4.828821654149623e-16 1.0
  outer loop
    vertex 79.0 83.5082689318679 0.9999999999999953
    vertex 74.0 114.5082689318679 0.999999999999984
    vertex 79.0 75.5082689318679 0.9999999999999981
  endloop
endfacet
facet normal 1.8991245666464827e-17 4.828821654149623e-16 1.0
  outer loop
    vertex 81.99999999999999 119.5082689318679 0.999999999999984
    vertex 79.0 83.5082689318679 0.9999999999999953
    vertex 94.0 83.5082689318679 0.9999999999999953
  endloop
endfacet
facet normal 1.8991245666464827e-17 4.828821654149623e-16 1.0
  outer loop
    vertex 81.99999999999999 119.5082689318679 0.999999999999984
    vertex 94.0 83.5082689318679 0.9999999999999953
    vertex 91.99999999999999 119.5082689318679 0.9999999999999869
  endloop
endfacet
facet normal 1.8991245666464827e-17 4.828821654149623e-16 1.0
  outer loop
    vertex 91.99999999999999 119.5082689318679 0.9999999999999869
    vertex 94.0 83.5082689318679 0.9999999999999953
    vertex 129.0 119.5082689318679 0.9999999999999869
  endloop
endfacet
facet normal 1.8991245666464827e-17 4.828821654149623e-16 1.0
  outer loop
    vertex 129.0 119.5082689318679 0.9999999999999869
    vertex 94.0 83.5082689318679 0.9999999999999953
    vertex 129.0 68.50826893186789 1.000000000000015
  endloop
endfacet
facet normal 0.0 3.191891195797325e-16 1.0
  outer loop
    vertex 45.00000000000001 119.5082689318679 6.979023120141207
    vertex 17.99999999999999 120.5082689318679 6.979023120141207
    vertex 17.99999999999999 119.5082689318679 6.979023120141207
  endloop
endfacet
facet normal 0.0 3.191891195797325e-16 1.0
  outer loop
    vertex 17.99999999999999 120.5082689318679 6.979023120141207
    vertex 45.00000000000001 119.5082689318679 6.979023120141207
    vertex 45.00000000000001 120.5082689318679 6.979023120141207
  endloop
endfacet
facet normal -1.0747003927258835e-17 -1.0 2.7286808243139413e-16
  outer loop
    vertex 0.9999999999999981 119.5082689318679 18.999999999999982
    vertex 17.99999999999999 119.5082689318679 9.999999999999982
    vertex 129.0 119.5082689318679 18.999999999999982
  endloop
endfacet
facet normal -1.0747003927258835e-17 -1.0 2.7286808243139413e-16
  outer loop
    vertex 17.99999999999999 119.5082689318679 9.999999999999982
    vertex 0.9999999999999981 119.5082689318679 18.999999999999982
    vertex 0.9999999999999981 119.5082689318679 0.9999999999999869
  endloop
endfacet
facet normal -1.0747003927258835e-17 -1.0 2.7286808243139413e-16
  outer loop
    vertex 129.0 119.5082689318679 18.999999999999982
    vertex 17.99999999999999 119.5082689318679 9.999999999999982
    vertex 81.99999999999999 119.5082689318679 10.32405131727753
  endloop
endfacet
facet normal -1.0747003927258835e-17 -1.0 2.7286808243139413e-16
  outer loop
    vertex 17.99999999999999 119.5082689318679 9.999999999999982
    vertex 0.9999999999999981 119.5082689318679 0.9999999999999869
    vertex 17.99999999999999 119.5082689318679 6.979023120141207
  endloop
endfacet
facet normal -1.0747003927258835e-17 -1.0 2.7286808243139413e-16
  outer loop
    vertex 17.99999999999999 119.5082689318679 6.979023120141207
    vertex 0.9999999999999981 119.5082689318679 0.9999999999999869
    vertex 45.00000000000001 119.5082689318679 6.979023120141207
  endloop
endfacet
facet normal -1.0747003927258835e-17 -1.0 2.7286808243139413e-16
  outer loop
    vertex 81.99999999999999 119.5082689318679 10.32405131727753
    vertex 45.00000000000001 119.5082689318679 9.999999999999982
    vertex 81.99999999999999 119.5082689318679 0.999999999999984
  endloop
endfacet
facet normal -1.0747003927258835e-17 -1.0 2.7286808243139413e-16
  outer loop
    vertex 45.00000000000001 119.5082689318679 9.999999999999982
    vertex 81.99999999999999 119.5082689318679 10.32405131727753
    vertex 17.99999999999999 119.5082689318679 9.999999999999982
  endloop
endfacet
facet normal -1.0747003927258835e-17 -1.0 2.7286808243139413e-16
  outer loop
    vertex 81.99999999999999 119.5082689318679 0.999999999999984
    vertex 45.00000000000001 119.5082689318679 9.999999999999982
    vertex 45.00000000000001 119.5082689318679 6.979023120141207
  endloop
endfacet
facet normal -1.0747003927258835e-17 -1.0 2.7286808243139413e-16
  outer loop
    vertex 81.99999999999999 119.5082689318679 0.999999999999984
    vertex 45.00000000000001 119.5082689318679 6.979023120141207
    vertex 0.9999999999999981 119.5082689318679 0.9999999999999869
  endloop
endfacet
facet normal -1.0747003927258835e-17 -1.0 2.7286808243139413e-16
  outer loop
    vertex 129.0 119.5082689318679 18.999999999999982
    vertex 91.99999999999999 119.5082689318679 10.32405131727753
    vertex 129.0 119.5082689318679 0.9999999999999869
  endloop
endfacet
facet normal -1.0747003927258835e-17 -1.0 2.7286808243139413e-16
  outer loop
    vertex 91.99999999999999 119.5082689318679 10.32405131727753
    vertex 129.0 119.5082689318679 18.999999999999982
    vertex 81.99999999999999 119.5082689318679 10.32405131727753
  endloop
endfacet
facet normal -1.0747003927258835e-17 -1.0 2.7286808243139413e-16
  outer loop
    vertex 129.0 119.5082689318679 0.9999999999999869
    vertex 91.99999999999999 119.5082689318679 10.32405131727753
    vertex 91.99999999999999 119.5082689318679 0.9999999999999869
  endloop
endfacet
facet normal -1.0 -0.0 0.0
  outer loop
    vertex 45.00000000000001 119.5082689318679 6.979023120141207
    vertex 45.00000000000001 120.5082689318679 9.999999999999982
    vertex 45.00000000000001 120.5082689318679 6.979023120141207
  endloop
endfacet
facet normal -1.0 -0.0 0.0
  outer loop
    vertex 45.00000000000001 120.5082689318679 9.999999999999982
    vertex 45.00000000000001 119.5082689318679 6.979023120141207
    vertex 45.00000000000001 119.5082689318679 9.999999999999982
  endloop
endfacet
facet normal -1.0 -0.0 0.0
  outer loop
    vertex 91.99999999999999 119.5082689318679 0.9999999999999869
    vertex 91.99999999999999 120.5082689318679 10.32405131727753
    vertex 91.99999999999999 120.5082689318679 0.9999999999999869
  endloop
endfacet
facet normal -1.0 -0.0 0.0
  outer loop
    vertex 91.99999999999999 120.5082689318679 10.32405131727753
    vertex 91.99999999999999 119.5082689318679 0.9999999999999869
    vertex 91.99999999999999 119.5082689318679 10.32405131727753
  endloop
endfacet
facet normal 0.0 -3.191891195797325e-16 -1.0
  outer loop
    vertex 91.99999999999999 120.5082689318679 10.32405131727753
    vertex 81.99999999999999 119.5082689318679 10.32405131727753
    vertex 81.99999999999999 120.5082689318679 10.32405131727753
  endloop
endfacet
facet normal 0.0 -3.191891195797325e-16 -1.0
  outer loop
    vertex 81.99999999999999 119.5082689318679 10.32405131727753
    vertex 91.99999999999999 120.5082689318679 10.32405131727753
    vertex 91.99999999999999 119.5082689318679 10.32405131727753
  endloop
endfacet
facet normal -2.819966482547896e-16 3.191891195797325e-16 1.0
  outer loop
    vertex 91.99999999999999 119.5082689318679 0.9999999999999869
    vertex 81.99999999999999 120.5082689318679 0.999999999999984
    vertex 81.99999999999999 119.5082689318679 0.999999999999984
  endloop
endfacet
facet normal -2.819966482547896e-16 3.191891195797325e-16 1.0
  outer loop
    vertex 81.99999999999999 120.5082689318679 0.999999999999984
    vertex 91.99999999999999 119.5082689318679 0.9999999999999869
    vertex 91.99999999999999 120.5082689318679 0.9999999999999869
  endloop
endfacet
facet normal 1.0 0.0 0.0
  outer loop
    vertex 81.99999999999999 119.5082689318679 10.32405131727753
    vertex 81.99999999999999 120.5082689318679 0.999999999999984
    vertex 81.99999999999999 120.5082689318679 10.32405131727753
  endloop
endfacet
facet normal 1.0 0.0 0.0
  outer loop
    vertex 81.99999999999999 120.5082689318679 0.999999999999984
    vertex 81.99999999999999 119.5082689318679 10.32405131727753
    vertex 81.99999999999999 119.5082689318679 0.999999999999984
  endloop
endfacet
facet normal -0.0 1.0 -3.191891195797325e-16
  outer loop
    vertex 81.99999999999999 120.5082689318679 0.999999999999984
    vertex 45.00000000000001 120.5082689318679 9.999999999999982
    vertex 81.99999999999999 120.5082689318679 10.32405131727753
  endloop
endfacet
facet normal -0.0 1.0 -3.191891195797325e-16
  outer loop
    vertex 45.00000000000001 120.5082689318679 9.999999999999982
    vertex 81.99999999999999 120.5082689318679 0.999999999999984
    vertex 45.00000000000001 120.5082689318679 6.979023120141207
  endloop
endfacet
facet normal -0.0 1.0 -3.191891195797325e-16
  outer loop
    vertex 45.00000000000001 120.5082689318679 6.979023120141207
    vertex 81.99999999999999 120.5082689318679 0.999999999999984
    vertex 17.99999999999999 120.5082689318679 6.979023120141207
  endloop
endfacet
facet normal -0.0 1.0 -3.191891195797325e-16
  outer loop
    vertex 130.0 120.5082689318679 18.999999999999982
    vertex 91.99999999999999 120.5082689318679 10.32405131727753
    vertex 0.0 120.5082689318679 18.999999999999982
  endloop
endfacet
facet normal -0.0 1.0 -3.191891195797325e-16
  outer loop
    vertex 91.99999999999999 120.5082689318679 10.32405131727753
    vertex 130.0 120.5082689318679 18.999999999999982
    vertex 130.0 120.5082689318679 -1.6919798895287383e-14
  endloop
endfacet
facet normal -0.0 1.0 -3.191891195797325e-16
  outer loop
    vertex 91.99999999999999 120.5082689318679 10.32405131727753
    vertex 130.0 120.5082689318679 -1.6919798895287383e-14
    vertex 91.99999999999999 120.5082689318679 0.9999999999999869
  endloop
endfacet
facet normal -0.0 1.0 -3.191891195797325e-16
  outer loop
    vertex 91.99999999999999 120.5082689318679 0.9999999999999869
    vertex 130.0 120.5082689318679 -1.6919798895287383e-14
    vertex 81.99999999999999 120.5082689318679 0.999999999999984
  endloop
endfacet
facet normal -0.0 1.0 -3.191891195797325e-16
  outer loop
    vertex 0.0 120.5082689318679 18.999999999999982
    vertex 17.99999999999999 120.5082689318679 9.999999999999982
    vertex 0.0 120.5082689318679 -1.6919798895287383e-14
  endloop
endfacet
facet normal -0.0 1.0 -3.191891195797325e-16
  outer loop
    vertex 17.99999999999999 120.5082689318679 9.999999999999982
    vertex 0.0 120.5082689318679 18.999999999999982
    vertex 81.99999999999999 120.5082689318679 10.32405131727753
  endloop
endfacet
facet normal -0.0 1.0 -3.191891195797325e-16
  outer loop
    vertex 81.99999999999999 120.5082689318679 10.32405131727753
    vertex 0.0 120.5082689318679 18.999999999999982
    vertex 91.99999999999999 120.5082689318679 10.32405131727753
  endloop
endfacet
facet normal -0.0 1.0 -3.191891195797325e-16
  outer loop
    vertex 17.99999999999999 120.5082689318679 9.999999999999982
    vertex 81.99999999999999 120.5082689318679 10.32405131727753
    vertex 45.00000000000001 120.5082689318679 9.999999999999982
  endloop
endfacet
facet normal -0.0 1.0 -3.191891195797325e-16
  outer loop
    vertex 0.0 120.5082689318679 -1.6919798895287383e-14
    vertex 17.99999999999999 120.5082689318679 9.999999999999982
    vertex 17.99999999999999 120.5082689318679 6.979023120141207
  endloop
endfacet
facet normal -0.0 1.0 -3.191891195797325e-16
  outer loop
    vertex 0.0 120.5082689318679 -1.6919798895287383e-14
    vertex 17.99999999999999 120.5082689318679 6.979023120141207
    vertex 81.99999999999999 120.5082689318679 0.999999999999984
  endloop
endfacet
facet normal -0.0 1.0 -3.191891195797325e-16
  outer loop
    vertex 0.0 120.5082689318679 -1.6919798895287383e-14
    vertex 81.99999999999999 120.5082689318679 0.999999999999984
    vertex 130.0 120.5082689318679 -1.6919798895287383e-14
  endloop
endfacet
facet normal 1.0 0.0 0.0
  outer loop
    vertex 77.0 67.5082689318679 19.0
    vertex 77.0 68.5082689318679 14.0
    vertex 77.0 68.5082689318679 19.0
  endloop
endfacet
facet normal 1.0 0.0 0.0
  outer loop
    vertex 77.0 68.5082689318679 14.0
    vertex 77.0 67.5082689318679 19.0
    vertex 77.0 67.5082689318679 14.0
  endloop
endfacet
facet normal -1.0 0.0 0.0
  outer loop
    vertex 94.0 75.5082689318679 -2.8199664825478975e-15
    vertex 94.0 83.5082689318679 0.9999999999999953
    vertex 94.0 83.5082689318679 -5.639932965095795e-15
  endloop
endfacet
facet normal -1.0 0.0 0.0
  outer loop
    vertex 94.0 83.5082689318679 0.9999999999999953
    vertex 94.0 75.5082689318679 -2.8199664825478975e-15
    vertex 94.0 75.5082689318679 0.9999999999999981
  endloop
endfacet
facet normal -0.0 3.191891195797325e-16 1.0
  outer loop
    vertex 98.0 67.5082689318679 17.0
    vertex 96.0 68.50826893186789 17.0
    vertex 96.0 67.5082689318679 17.0
  endloop
endfacet
facet normal -0.0 3.191891195797325e-16 1.0
  outer loop
    vertex 96.0 68.50826893186789 17.0
    vertex 98.0 67.5082689318679 17.0
    vertex 98.00000000000003 68.5082689318679 17.0
  endloop
endfacet
facet normal -1.0 0.0 0.0
  outer loop
    vertex 94.00000000000001 67.5082689318679 14.0
    vertex 94.00000000000001 68.5082689318679 19.0
    vertex 94.00000000000001 68.5082689318679 14.0
  endloop
endfacet
facet normal -1.0 0.0 0.0
  outer loop
    vertex 94.00000000000001 68.5082689318679 19.0
    vertex 94.00000000000001 67.5082689318679 14.0
    vertex 94.00000000000001 67.5082689318679 19.0
  endloop
endfacet
facet normal -1.0 0.0 0.0
  outer loop
    vertex 98.0 67.5082689318679 17.0
    vertex 98.0 68.5082689318679 19.0
    vertex 98.00000000000003 68.5082689318679 17.0
  endloop
endfacet
facet normal -1.0 0.0 0.0
  outer loop
    vertex 98.0 68.5082689318679 19.0
    vertex 98.0 67.5082689318679 17.0
    vertex 98.00000000000003 67.5082689318679 19.0
  endloop
endfacet
facet normal 0.0 -3.191891195797325e-16 -1.0
  outer loop
    vertex 0.0 120.5082689318679 -1.6919798895287383e-14
    vertex 11.000000000000002 114.5082689318679 -1.4099832412739488e-14
    vertex 0.0 67.50826893186789 0.0
  endloop
endfacet
facet normal 0.0 -3.191891195797325e-16 -1.0
  outer loop
    vertex 11.000000000000002 114.5082689318679 -1.4099832412739488e-14
    vertex 0.0 120.5082689318679 -1.6919798895287383e-14
    vertex 130.0 120.5082689318679 -1.6919798895287383e-14
  endloop
endfacet
facet normal 0.0 -3.191891195797325e-16 -1.0
  outer loop
    vertex 11.000000000000002 114.5082689318679 -1.4099832412739488e-14
    vertex 130.0 120.5082689318679 -1.6919798895287383e-14
    vertex 74.0 114.5082689318679 -1.4099832412739488e-14
  endloop
endfacet
facet normal 0.0 -3.191891195797325e-16 -1.0
  outer loop
    vertex 74.0 114.5082689318679 -1.4099832412739488e-14
    vertex 130.0 120.5082689318679 -1.6919798895287383e-14
    vertex 79.0 83.5082689318679 -5.639932965095795e-15
  endloop
endfacet
facet normal 0.0 -3.191891195797325e-16 -1.0
  outer loop
    vertex 74.0 114.5082689318679 -1.4099832412739488e-14
    vertex 79.0 83.5082689318679 -5.639932965095795e-15
    vertex 74.0 69.50826893186789 0.0
  endloop
endfacet
facet normal 0.0 -3.191891195797325e-16 -1.0
  outer loop
    vertex 79.0 83.5082689318679 -5.639932965095795e-15
    vertex 130.0 120.5082689318679 -1.6919798895287383e-14
    vertex 94.0 83.5082689318679 -5.639932965095795e-15
  endloop
endfacet
facet normal 0.0 -3.191891195797325e-16 -1.0
  outer loop
    vertex 94.0 83.5082689318679 -5.639932965095795e-15
    vertex 130.0 120.5082689318679 -1.6919798895287383e-14
    vertex 94.0 75.5082689318679 -2.8199664825478975e-15
  endloop
endfacet
facet normal 0.0 -3.191891195797325e-16 -1.0
  outer loop
    vertex 0.0 67.50826893186789 0.0
    vertex 11.000000000000002 69.50826893186789 0.0
    vertex 130.0 67.50826893186789 0.0
  endloop
endfacet
facet normal 0.0 -3.191891195797325e-16 -1.0
  outer loop
    vertex 11.000000000000002 69.50826893186789 0.0
    vertex 0.0 67.50826893186789 0.0
    vertex 11.000000000000002 114.5082689318679 -1.4099832412739488e-14
  endloop
endfacet
facet normal 0.0 -3.191891195797325e-16 -1.0
  outer loop
    vertex 130.0 67.50826893186789 0.0
    vertex 11.000000000000002 69.50826893186789 0.0
    vertex 74.0 69.50826893186789 0.0
  endloop
endfacet
facet normal 0.0 -3.191891195797325e-16 -1.0
  outer loop
    vertex 130.0 67.50826893186789 0.0
    vertex 74.0 69.50826893186789 0.0
    vertex 79.0 75.5082689318679 -2.8199664825478975e-15
  endloop
endfacet
facet normal 0.0 -3.191891195797325e-16 -1.0
  outer loop
    vertex 79.0 75.5082689318679 -2.8199664825478975e-15
    vertex 74.0 69.50826893186789 0.0
    vertex 79.0 83.5082689318679 -5.639932965095795e-15
  endloop
endfacet
facet normal 0.0 -3.191891195797325e-16 -1.0
  outer loop
    vertex 130.0 67.50826893186789 0.0
    vertex 79.0 75.5082689318679 -2.8199664825478975e-15
    vertex 94.0 75.5082689318679 -2.8199664825478975e-15
  endloop
endfacet
facet normal 0.0 -3.191891195797325e-16 -1.0
  outer loop
    vertex 130.0 67.50826893186789 0.0
    vertex 94.0 75.5082689318679 -2.8199664825478975e-15
    vertex 130.0 120.5082689318679 -1.6919798895287383e-14
  endloop
endfacet
facet normal -0.0 1.0 -3.191891195797325e-16
  outer loop
    vertex 94.0 75.5082689318679 -2.8199664825478975e-15
    vertex 79.0 75.5082689318679 0.9999999999999981
    vertex 94.0 75.5082689318679 0.9999999999999981
  endloop
endfacet
facet normal -0.0 1.0 -3.191891195797325e-16
  outer loop
    vertex 79.0 75.5082689318679 0.9999999999999981
    vertex 94.0 75.5082689318679 -2.8199664825478975e-15
    vertex 79.0 75.5082689318679 -2.8199664825478975e-15
  endloop
endfacet
facet normal 0.0 -1.0 3.191891195797325e-16
  outer loop
    vertex 79.0 83.5082689318679 -5.639932965095795e-15
    vertex 94.0 83.5082689318679 0.9999999999999953
    vertex 79.0 83.5082689318679 0.9999999999999953
  endloop
endfacet
facet normal 0.0 -1.0 3.191891195797325e-16
  outer loop
    vertex 94.0 83.5082689318679 0.9999999999999953
    vertex 79.0 83.5082689318679 -5.639932965095795e-15
    vertex 94.0 83.5082689318679 -5.639932965095795e-15
  endloop
endfacet
facet normal 1.0 0.0 0.0
  outer loop
    vertex 79.0 75.5082689318679 0.9999999999999981
    vertex 79.0 83.5082689318679 -5.639932965095795e-15
    vertex 79.0 83.5082689318679 0.9999999999999953
  endloop
endfacet
facet normal 1.0 0.0 0.0
  outer loop
    vertex 79.0 83.5082689318679 -5.639932965095795e-15
    vertex 79.0 75.5082689318679 0.9999999999999981
    vertex 79.0 75.5082689318679 -2.8199664825478975e-15
  endloop
endfacet
facet normal -0.0 3.191891195797325e-16 1.0
  outer loop
    vertex 94.00000000000001 67.5082689318679 14.0
    vertex 77.0 68.5082689318679 14.0
    vertex 77.0 67.5082689318679 14.0
  endloop
endfacet
facet normal -0.0 3.191891195797325e-16 1.0
  outer loop
    vertex 77.0 68.5082689318679 14.0
    vertex 94.00000000000001 67.5082689318679 14.0
    vertex 94.00000000000001 68.5082689318679 14.0
  endloop
endfacet
facet normal 1.0 0.0 0.0
  outer loop
    vertex 96.0 67.5082689318679 19.0
    vertex 96.0 68.50826893186789 17.0
    vertex 96.0 68.50826893186789 19.0
  endloop
endfacet
facet normal 1.0 0.0 0.0
  outer loop
    vertex 96.0 68.50826893186789 17.0
    vertex 96.0 67.5082689318679 19.0
    vertex 96.0 67.5082689318679 17.0
  endloop
endfacet
endsolid Case
